<svg xmlns="http://www.w3.org/2000/svg" width="233" height="233" viewBox="463 156 233 233">
  <g id="Component_1_1" data-name="Component 1 – 1" transform="translate(463 156)">
    <g id="Ellipse_1" data-name="Ellipse 1" fill="#050505" stroke="#707070" stroke-width="1">
      <circle cx="116.5" cy="116.5" r="116.5" stroke="none"/>
      <circle cx="116.5" cy="116.5" r="116" fill="none"/>
    </g>
  </g>
  <path id="Union_1" data-name="Union 1" d="M37.036,153v-2.3l7.187-1.32a2.772,2.772,0,0,0,1.638-1,2.889,2.889,0,0,0,.66-1.883V89.3h-15.6a1.822,1.822,0,0,0-1.418.489,3.411,3.411,0,0,0-.684,1.222l-3.52,10.8h-.045v.8H2.383V99.758H5.719A4.652,4.652,0,0,0,9.055,98.8a3.883,3.883,0,0,0,.953-2.859V27.8a3.883,3.883,0,0,0-.953-2.859,4.652,4.652,0,0,0-3.336-.953H2.859V21.125H30.976q11.915,0,18.348,5.957a19.589,19.589,0,0,1,6.433,15.012q0,10.961-6.91,16.68a24.969,24.969,0,0,1-16.441,5.719H17.633V95.945A3.44,3.44,0,0,0,18.824,98.8a4.807,4.807,0,0,0,3.1.953h.789V85.631H79.276v16.182H76.685l-3.52-10.8a3.64,3.64,0,0,0-.661-1.222A1.671,1.671,0,0,0,71.16,89.3H55.32v57.2A2.8,2.8,0,0,0,56,148.4a2.926,2.926,0,0,0,1.662.977l7.187,1.32V153ZM18.824,24.937A3.44,3.44,0,0,0,17.633,27.8V61.633H29.547a19.92,19.92,0,0,0,12.629-4.289q5.481-4.289,5.48-14.774,0-9.531-4.527-14.058T28.594,23.984H21.922A4.807,4.807,0,0,0,18.824,24.937Z" transform="translate(538.671 184.938)" fill="#fff" stroke="#fff" stroke-width="1"/>
  <g id="Component_1_2" data-name="Component 1 – 2" transform="translate(489 182)">
    <g id="Ellipse_1-2" data-name="Ellipse 1" fill="none" stroke="#fff" stroke-width="4">
      <circle cx="90" cy="90" r="90" stroke="none"/>
      <circle cx="90" cy="90" r="88" fill="none"/>
    </g>
  </g>
</svg>
